<svg width="18" height="23" viewBox="0 0 18 23" fill="none" xmlns="http://www.w3.org/2000/svg">
<path d="M11.491 14.7896H11.5M6.5 14.7896H6.50897" stroke="#000A1A" stroke-width="2" stroke-linecap="square" stroke-linejoin="round"/>
<path d="M1 8.28955V7.53955H0.25V8.28955H1ZM1 21.2896H0.25V22.0396H1V21.2896ZM17 21.2896V22.0396H17.75V21.2896H17ZM17 8.28955H17.75V7.53955H17V8.28955ZM5.25001 8.28955V5.78955H3.75001V8.28955H5.25001ZM12.75 5.78955V8.28955H14.25V5.78955H12.75ZM9.00001 2.03955C11.0711 2.03955 12.75 3.71848 12.75 5.78955H14.25C14.25 2.89006 11.8995 0.539551 9.00001 0.539551V2.03955ZM5.25001 5.78955C5.25001 3.71848 6.92894 2.03955 9.00001 2.03955V0.539551C6.10051 0.539551 3.75001 2.89006 3.75001 5.78955H5.25001ZM0.25 8.28955V21.2896H1.75V8.28955H0.25ZM1 22.0396H17V20.5396H1V22.0396ZM16.25 8.28955V21.2896H17.75V8.28955H16.25ZM17 7.53955H1V9.03955H17V7.53955Z" fill="#000A1A"/>
</svg>
